<svg width="88" height="35" viewBox="0 0 88 35" version="1.1" xmlns="http://www.w3.org/2000/svg" xmlns:xlink="http://www.w3.org/1999/xlink">
  <title>logotype</title>
  <desc>Created using Figma</desc>
  <g id="Canvas" transform="translate(111 590)">
    <g id="logotype">
      <use xlink:href="#path0_fill" transform="translate(-111 -590)" fill="#0C29D0"/>
      <use xlink:href="#path1_fill" transform="translate(-111 -590)" fill="#0C29D0"/>
      <use xlink:href="#path2_fill" transform="translate(-111 -590)" fill="#0C29D0"/>
      <use xlink:href="#path3_fill" transform="translate(-111 -590)" fill="#0C29D0"/>
      <use xlink:href="#path4_fill" transform="translate(-111 -590)" fill="#0C29D0"/>
    </g>
  </g>
  <defs>
    <path id="path0_fill" d="M 12.6772 9.73753C 5.28215 9.73753 0 15.2493 0 22.3688C 0 29.4882 5.28215 35 12.6772 35C 20.0262 35 25.3084 29.4882 25.3084 22.3688C 25.3084 15.2493 20.0262 9.73753 12.6772 9.73753ZM 18.6483 22.3688C 18.6483 26.3189 16.2598 29.3963 12.6772 29.3963C 9.09449 29.3963 6.6601 26.3189 6.6601 22.3688C 6.6601 18.4186 9.09449 15.3412 12.6772 15.3412C 16.2598 15.3412 18.6483 18.4186 18.6483 22.3688Z"/>
    <path id="path1_fill" d="M 35.6057 0L 29.0834 0L 29.0834 34.4488L 35.6057 34.4488L 35.6057 0Z"/>
    <path id="path2_fill" d="M 47.5605 34.4488L 47.5605 10.2887L 41.0382 10.2887L 41.0382 34.4488L 47.5605 34.4488ZM 47.5605 6.9357L 47.5605 1.37795L 41.0382 1.37795L 41.0382 6.9357L 47.5605 6.9357Z"/>
    <path id="path3_fill" d="M 69.7122 12.9068C 67.4615 10.794 64.5678 9.73753 61.3526 9.73753C 56.9432 9.73753 52.7175 12.2178 52.7175 17.1325C 52.7175 21.3583 55.8867 23.0118 58.7804 24.252C 61.1689 25.3084 63.3736 26.0433 63.3736 27.7428C 63.3736 29.2126 61.6282 29.8556 60.2962 29.8556C 57.9537 29.8556 56.4379 28.7992 54.6007 27.0079L 50.8802 30.8661C 53.5442 33.5302 56.8513 35 60.6177 35C 65.3028 35 69.8959 32.5656 69.8959 27.2375C 69.8959 22.6444 65.9458 21.0827 62.8224 19.7966C 60.8014 18.9698 59.0101 18.189 59.0101 16.6732C 59.0101 15.5249 60.1125 14.836 61.3526 14.836C 63.1899 14.836 64.8894 15.7546 66.1295 16.857L 69.7122 12.9068Z"/>
    <path id="path4_fill" d="M 87.1408 15.7087L 87.1408 10.2887L 80.9859 10.2887L 80.9859 4.96063L 75.4741 4.96063L 74.4636 10.2887L 71.5699 10.2887L 71.5699 15.7087L 74.4636 15.7087L 74.4636 25.7677C 74.4636 27.1916 74.5555 28.6155 74.923 29.8097C 75.7957 32.9331 78.3219 35 82.0883 35C 83.9715 35 86.2681 34.4948 87.8298 33.5761L 85.8088 28.7533C 84.982 29.1667 84.2012 29.4423 83.1907 29.4423C 81.8127 29.4423 81.2615 28.5696 81.0778 27.1457C 80.9859 26.4567 80.9859 25.8136 80.9859 25.0787L 80.9859 15.7087L 87.1408 15.7087Z"/>
  </defs>
</svg>
